<?xml version="1.0" encoding="UTF-8" standalone="no"?>
<!DOCTYPE svg PUBLIC "-//W3C//DTD SVG 1.1//EN"
 "http://www.w3.org/Graphics/SVG/1.1/DTD/svg11.dtd">
<!-- Generated by graphviz version 8.1.0 (20230707.0739)
 -->
<!-- Pages: 1 -->
<svg width="552pt" height="156pt"
 viewBox="0.00 0.00 551.75 156.48" xmlns="http://www.w3.org/2000/svg" xmlns:xlink="http://www.w3.org/1999/xlink">
<g id="graph0" class="graph" transform="scale(1 1) rotate(0) translate(4 152.48)">
<polygon fill="white" stroke="none" points="-4,4 -4,-152.48 547.75,-152.48 547.75,4 -4,4"/>
<!-- &#45;1 -->
<g id="node1" class="node">
<title>&#45;1</title>
<polygon fill="lightgray" stroke="black" points="23.5,-148.48 0,-148.48 0,-129.98 23.5,-129.98 23.5,-148.48"/>
<text text-anchor="middle" x="11.75" y="-135.93" font-family="Times,serif" font-size="9.00">&#45;1</text>
</g>
<!-- 4 -->
<g id="node18" class="node">
<title>4</title>
<ellipse fill="white" stroke="black" cx="263.75" cy="-79.49" rx="14.5" ry="14.5"/>
<text text-anchor="middle" x="263.75" y="-76.19" font-family="Times,serif" font-size="9.00">4</text>
</g>
<!-- &#45;1&#45;&gt;4 -->
<g id="edge1" class="edge">
<title>&#45;1&#45;&gt;4</title>
<path fill="none" stroke="green" stroke-width="0.27" d="M23.62,-133.18C26.57,-132.03 29.75,-130.89 32.75,-129.98 106.78,-107.67 197.05,-91.38 239.49,-84.34"/>
<polygon fill="green" stroke="green" stroke-width="0.27" points="239.91,-87.82 249.22,-82.75 238.78,-80.91 239.91,-87.82"/>
</g>
<!-- &#45;2 -->
<g id="node2" class="node">
<title>&#45;2</title>
<polygon fill="lightgray" stroke="black" points="65.5,-148.48 42,-148.48 42,-129.98 65.5,-129.98 65.5,-148.48"/>
<text text-anchor="middle" x="53.75" y="-135.93" font-family="Times,serif" font-size="9.00">&#45;2</text>
</g>
<!-- &#45;2&#45;&gt;4 -->
<g id="edge2" class="edge">
<title>&#45;2&#45;&gt;4</title>
<path fill="none" stroke="green" stroke-width="0.17" d="M65.65,-133.27C68.6,-132.12 71.77,-130.95 74.75,-129.98 133.16,-110.94 203.52,-94.06 239.69,-85.82"/>
<polygon fill="green" stroke="green" stroke-width="0.17" points="240.37,-89.26 249.36,-83.64 238.83,-82.43 240.37,-89.26"/>
</g>
<!-- &#45;3 -->
<g id="node3" class="node">
<title>&#45;3</title>
<polygon fill="lightgray" stroke="black" points="107.5,-148.48 84,-148.48 84,-129.98 107.5,-129.98 107.5,-148.48"/>
<text text-anchor="middle" x="95.75" y="-135.93" font-family="Times,serif" font-size="9.00">&#45;3</text>
</g>
<!-- &#45;3&#45;&gt;4 -->
<g id="edge3" class="edge">
<title>&#45;3&#45;&gt;4</title>
<path fill="none" stroke="red" stroke-width="0.15" d="M107.7,-133.42C110.65,-132.26 113.81,-131.06 116.75,-129.98 160.2,-114.14 211.52,-97.28 240.58,-87.89"/>
<polygon fill="red" stroke="red" stroke-width="0.15" points="241.44,-91.3 249.89,-84.9 239.3,-84.63 241.44,-91.3"/>
</g>
<!-- &#45;4 -->
<g id="node4" class="node">
<title>&#45;4</title>
<polygon fill="lightgray" stroke="black" points="149.5,-148.48 126,-148.48 126,-129.98 149.5,-129.98 149.5,-148.48"/>
<text text-anchor="middle" x="137.75" y="-135.93" font-family="Times,serif" font-size="9.00">&#45;4</text>
</g>
<!-- &#45;4&#45;&gt;4 -->
<g id="edge4" class="edge">
<title>&#45;4&#45;&gt;4</title>
<path fill="none" stroke="red" stroke-width="0.23" d="M149.83,-132.7C171.01,-122.99 215.11,-102.78 241.8,-90.55"/>
<polygon fill="red" stroke="red" stroke-width="0.23" points="243.14,-93.78 250.77,-86.44 240.22,-87.42 243.14,-93.78"/>
</g>
<!-- &#45;5 -->
<g id="node5" class="node">
<title>&#45;5</title>
<polygon fill="lightgray" stroke="black" points="191.5,-148.48 168,-148.48 168,-129.98 191.5,-129.98 191.5,-148.48"/>
<text text-anchor="middle" x="179.75" y="-135.93" font-family="Times,serif" font-size="9.00">&#45;5</text>
</g>
<!-- &#45;5&#45;&gt;4 -->
<g id="edge5" class="edge">
<title>&#45;5&#45;&gt;4</title>
<path fill="none" stroke="red" stroke-width="0.41" d="M191.79,-129.96C205.46,-120.56 227.98,-105.08 244.19,-93.94"/>
<polygon fill="red" stroke="red" stroke-width="0.41" points="245.75,-97.11 252.01,-88.56 241.78,-91.34 245.75,-97.11"/>
</g>
<!-- &#45;6 -->
<g id="node6" class="node">
<title>&#45;6</title>
<polygon fill="lightgray" stroke="black" points="233.5,-148.48 210,-148.48 210,-129.98 233.5,-129.98 233.5,-148.48"/>
<text text-anchor="middle" x="221.75" y="-135.93" font-family="Times,serif" font-size="9.00">&#45;6</text>
</g>
<!-- &#45;6&#45;&gt;4 -->
<g id="edge6" class="edge">
<title>&#45;6&#45;&gt;4</title>
<path fill="none" stroke="red" stroke-width="0.22" d="M227.95,-129.71C233.65,-121.87 242.32,-109.95 249.7,-99.8"/>
<polygon fill="red" stroke="red" stroke-width="0.22" points="252.45,-101.97 255.5,-91.83 246.79,-97.86 252.45,-101.97"/>
</g>
<!-- &#45;7 -->
<g id="node7" class="node">
<title>&#45;7</title>
<polygon fill="lightgray" stroke="black" points="275.5,-148.48 252,-148.48 252,-129.98 275.5,-129.98 275.5,-148.48"/>
<text text-anchor="middle" x="263.75" y="-135.93" font-family="Times,serif" font-size="9.00">&#45;7</text>
</g>
<!-- &#45;7&#45;&gt;4 -->
<g id="edge7" class="edge">
<title>&#45;7&#45;&gt;4</title>
<path fill="none" stroke="red" stroke-width="0.17" d="M263.75,-129.71C263.75,-122.97 263.75,-113.2 263.75,-104.14"/>
<polygon fill="red" stroke="red" stroke-width="0.17" points="267.25,-104.42 263.75,-94.42 260.25,-104.42 267.25,-104.42"/>
</g>
<!-- &#45;8 -->
<g id="node8" class="node">
<title>&#45;8</title>
<polygon fill="lightgray" stroke="black" points="317.5,-148.48 294,-148.48 294,-129.98 317.5,-129.98 317.5,-148.48"/>
<text text-anchor="middle" x="305.75" y="-135.93" font-family="Times,serif" font-size="9.00">&#45;8</text>
</g>
<!-- &#45;8&#45;&gt;4 -->
<g id="edge8" class="edge">
<title>&#45;8&#45;&gt;4</title>
<path fill="none" stroke="green" stroke-width="0.24" d="M299.55,-129.71C293.85,-121.87 285.18,-109.95 277.8,-99.8"/>
<polygon fill="green" stroke="green" stroke-width="0.24" points="280.71,-97.86 272,-91.83 275.05,-101.97 280.71,-97.86"/>
</g>
<!-- &#45;9 -->
<g id="node9" class="node">
<title>&#45;9</title>
<polygon fill="lightgray" stroke="black" points="359.5,-148.48 336,-148.48 336,-129.98 359.5,-129.98 359.5,-148.48"/>
<text text-anchor="middle" x="347.75" y="-135.93" font-family="Times,serif" font-size="9.00">&#45;9</text>
</g>
<!-- &#45;9&#45;&gt;4 -->
<g id="edge9" class="edge">
<title>&#45;9&#45;&gt;4</title>
<path fill="none" stroke="green" stroke-width="0.24" d="M335.71,-129.96C322.04,-120.56 299.52,-105.08 283.31,-93.94"/>
<polygon fill="green" stroke="green" stroke-width="0.24" points="285.72,-91.34 275.49,-88.56 281.75,-97.11 285.72,-91.34"/>
</g>
<!-- &#45;10 -->
<g id="node10" class="node">
<title>&#45;10</title>
<polygon fill="lightgray" stroke="black" points="405.75,-148.48 377.75,-148.48 377.75,-129.98 405.75,-129.98 405.75,-148.48"/>
<text text-anchor="middle" x="391.75" y="-135.93" font-family="Times,serif" font-size="9.00">&#45;10</text>
</g>
<!-- &#45;10&#45;&gt;4 -->
<g id="edge10" class="edge">
<title>&#45;10&#45;&gt;4</title>
<path fill="none" stroke="red" stroke-width="0.49" d="M377.56,-131.83C355.3,-121.79 312,-102.25 285.7,-90.39"/>
<polygon fill="red" stroke="red" stroke-width="0.49" points="287.4,-87.32 276.85,-86.4 284.52,-93.7 287.4,-87.32"/>
</g>
<!-- &#45;11 -->
<g id="node11" class="node">
<title>&#45;11</title>
<polygon fill="lightgray" stroke="black" points="451.75,-148.48 423.75,-148.48 423.75,-129.98 451.75,-129.98 451.75,-148.48"/>
<text text-anchor="middle" x="437.75" y="-135.93" font-family="Times,serif" font-size="9.00">&#45;11</text>
</g>
<!-- &#45;11&#45;&gt;4 -->
<g id="edge11" class="edge">
<title>&#45;11&#45;&gt;4</title>
<path fill="none" stroke="red" stroke-width="0.34" d="M423.66,-133.11C420.72,-132.06 417.64,-130.97 414.75,-129.98 369.7,-114.52 316.74,-97.4 287.02,-87.9"/>
<polygon fill="red" stroke="red" stroke-width="0.34" points="288.12,-84.57 277.53,-84.86 285.99,-91.24 288.12,-84.57"/>
</g>
<!-- &#45;12 -->
<g id="node12" class="node">
<title>&#45;12</title>
<polygon fill="lightgray" stroke="black" points="497.75,-148.48 469.75,-148.48 469.75,-129.98 497.75,-129.98 497.75,-148.48"/>
<text text-anchor="middle" x="483.75" y="-135.93" font-family="Times,serif" font-size="9.00">&#45;12</text>
</g>
<!-- &#45;12&#45;&gt;4 -->
<g id="edge12" class="edge">
<title>&#45;12&#45;&gt;4</title>
<path fill="none" stroke="green" stroke-width="0.57" d="M469.71,-132.95C466.77,-131.91 463.67,-130.87 460.75,-129.98 398.76,-111.13 324.28,-93.84 287.17,-85.59"/>
<polygon fill="green" stroke="green" stroke-width="0.57" points="288.25,-82.24 277.73,-83.5 286.74,-89.08 288.25,-82.24"/>
</g>
<!-- &#45;13 -->
<g id="node13" class="node">
<title>&#45;13</title>
<polygon fill="lightgray" stroke="black" points="543.75,-148.48 515.75,-148.48 515.75,-129.98 543.75,-129.98 543.75,-148.48"/>
<text text-anchor="middle" x="529.75" y="-135.93" font-family="Times,serif" font-size="9.00">&#45;13</text>
</g>
<!-- &#45;13&#45;&gt;4 -->
<g id="edge13" class="edge">
<title>&#45;13&#45;&gt;4</title>
<path fill="none" stroke="green" stroke-width="0.64" d="M515.25,-132.68C512.45,-131.71 509.53,-130.76 506.75,-129.98 427.84,-107.92 331.96,-91.31 287.95,-84.23"/>
<polygon fill="green" stroke="green" stroke-width="0.64" points="288.59,-80.79 278.16,-82.68 287.49,-87.7 288.59,-80.79"/>
</g>
<!-- 0 -->
<g id="node14" class="node">
<title>0</title>
<ellipse fill="lightblue" stroke="black" cx="193.75" cy="-14.5" rx="14.5" ry="14.5"/>
<text text-anchor="middle" x="193.75" y="-11.2" font-family="Times,serif" font-size="9.00">0</text>
</g>
<!-- 1 -->
<g id="node15" class="node">
<title>1</title>
<ellipse fill="lightblue" stroke="black" cx="240.75" cy="-14.5" rx="14.5" ry="14.5"/>
<text text-anchor="middle" x="240.75" y="-11.2" font-family="Times,serif" font-size="9.00">1</text>
</g>
<!-- 2 -->
<g id="node16" class="node">
<title>2</title>
<ellipse fill="lightblue" stroke="black" cx="287.75" cy="-14.5" rx="14.5" ry="14.5"/>
<text text-anchor="middle" x="287.75" y="-11.2" font-family="Times,serif" font-size="9.00">2</text>
</g>
<!-- 3 -->
<g id="node17" class="node">
<title>3</title>
<ellipse fill="lightblue" stroke="black" cx="334.75" cy="-14.5" rx="14.5" ry="14.5"/>
<text text-anchor="middle" x="334.75" y="-11.2" font-family="Times,serif" font-size="9.00">3</text>
</g>
<!-- 4&#45;&gt;0 -->
<g id="edge14" class="edge">
<title>4&#45;&gt;0</title>
<path fill="none" stroke="green" stroke-width="0.24" d="M253.12,-68.92C241.99,-58.91 224.34,-43.03 211.18,-31.18"/>
<polygon fill="green" stroke="green" stroke-width="0.24" points="213.8,-28.83 204.02,-24.74 209.12,-34.03 213.8,-28.83"/>
</g>
<!-- 4&#45;&gt;1 -->
<g id="edge15" class="edge">
<title>4&#45;&gt;1</title>
<path fill="none" stroke="green" stroke-width="0.23" d="M258.98,-65.44C256.09,-57.5 252.31,-47.14 248.94,-37.92"/>
<polygon fill="green" stroke="green" stroke-width="0.23" points="252.23,-36.72 245.51,-28.53 245.65,-39.12 252.23,-36.72"/>
</g>
<!-- 4&#45;&gt;2 -->
<g id="edge16" class="edge">
<title>4&#45;&gt;2</title>
<path fill="none" stroke="red" stroke-width="0.37" d="M268.72,-65.44C271.78,-57.41 275.78,-46.92 279.32,-37.63"/>
<polygon fill="red" stroke="red" stroke-width="0.37" points="282.49,-39.12 282.78,-28.53 275.95,-36.63 282.49,-39.12"/>
</g>
<!-- 4&#45;&gt;3 -->
<g id="edge17" class="edge">
<title>4&#45;&gt;3</title>
<path fill="none" stroke="green" stroke-width="0.15" d="M274.23,-69.19C285.45,-59.24 303.46,-43.26 316.92,-31.32"/>
<polygon fill="green" stroke="green" stroke-width="0.15" points="319.07,-34.08 324.23,-24.83 314.43,-28.85 319.07,-34.08"/>
</g>
</g>
</svg>
